#!OML:ASF F:\VICON\USERDATA\INSTALL\rory3\rory3.ASF
:FULLY-SPECIFIED
:DEGREES
947
root 2.62154 18.0392 1.13595 3.18052 44.7371 -13.545
lowerback 6.09781 4.34396 -0.156494
upperback -0.635979 5.62277 -4.89238
thorax -3.59124 2.77025 -5.49694
lowerneck -24.1439 -13.2098 -13.2655
upperneck 9.75684 -15.688 12.3406
head 8.96296 -6.73727 3.81041
rclavicle -3.26007e-014 1.27222e-014
rhumerus 57.2806 -28.818 -52.9154
rradius 46.3323
rwrist 40.5228
rhand -56.9819 -13.1513
rfingers 7.12502
rthumb -29.2742 -40.8675
lclavicle -3.26007e-014 1.27222e-014
lhumerus -30.6874 -0.359878 64.1646
lradius 55.0075
lwrist -4.44747
lhand -14.3512 22.466
lfingers 7.12502
lthumb 11.7905 52.1141
rfemur -2.38072 -15.637 23.6329
rtibia 13.5864
rfoot -24.4306 -24.5981
rtoes 8.1442
lfemur -28.3718 -15.6536 -2.713
ltibia 29.3531
lfoot -13.8317 -16.6491
ltoes -14.9719
948
root 2.62519 18.041 1.13871 3.19406 44.6647 -13.5772
lowerback 6.17347 4.32851 -0.0245021
upperback -0.716142 5.60433 -5.01232
thorax -3.69434 2.75543 -5.70788
lowerneck -23.9137 -13.0446 -12.9218
upperneck 9.63799 -15.5529 12.1494
head 8.82296 -6.69366 3.73258
rclavicle -5.48646e-014 2.70347e-014
rhumerus 56.8888 -28.2617 -49.8535
rradius 45.7323
rwrist 40.015
rhand -57.172 -12.2165
rfingers 7.12502
rthumb -29.4557 -39.9009
lclavicle -5.48646e-014 2.70347e-014
lhumerus -30.9205 -0.24421 63.9119
lradius 55.1355
lwrist -4.37819
lhand -14.4748 22.4933
lfingers 7.12502
lthumb 11.6713 52.1482
rfemur -2.23515 -15.3953 23.654
rtibia 13.2798
rfoot -24.4803 -24.6109
rtoes 9.1729
lfemur -28.3368 -15.4672 -2.71322
ltibia 29.3249
lfoot -13.6249 -16.7661
ltoes -14.1129
949
root 2.62931 18.0442 1.1412 3.19704 44.5691 -13.6639
lowerback 6.22314 4.31707 0.168977
upperback -0.851092 5.59411 -5.16518
thorax -3.83031 2.74169 -5.99026
lowerneck -23.6769 -12.8517 -12.4972
upperneck 9.63929 -15.4232 11.9721
head 8.72054 -6.64655 3.64529
rclavicle -6.12257e-014 -5.40694e-014
rhumerus 55.9664 -27.5278 -46.3779
rradius 45.5635
rwrist 39.8865
rhand -56.5054 -14.4031
rfingers 7.12502
rthumb -28.8191 -42.1978
lclavicle -6.12257e-014 -5.40694e-014
lhumerus -31.2644 -0.343356 63.5969
lradius 55.2774
lwrist -4.11833
lhand -14.9737 23.6196
lfingers 7.12502
lthumb 11.1901 53.3012
rfemur -2.24809 -15.1992 23.7237
rtibia 13.2087
rfoot -24.4767 -24.6496
rtoes 9.30191
lfemur -28.2775 -15.3263 -2.64086
ltibia 29.2215
lfoot -13.1598 -16.8355
ltoes -12.3854
950
root 2.63259 18.0501 1.14223 3.57513 44.3701 -13.3854
lowerback 6.16645 4.36454 0.113481
upperback -0.972095 5.6448 -5.41242
thorax -3.90034 2.76494 -6.22725
lowerneck -23.6037 -12.7424 -12.2834
upperneck 9.72743 -15.3678 11.9959
head 8.71964 -6.61279 3.63442
rclavicle -1.03368e-014 -3.18055e-014
rhumerus 54.981 -26.9538 -43.0508
rradius 45.7099
rwrist 41.3367
rhand -56.5422 -18.3948
rfingers 7.12502
rthumb -28.8543 -46.1836
lclavicle -1.03368e-014 -3.18055e-014
lhumerus -31.4346 -0.425951 63.3052
lradius 55.3452
lwrist -3.97209
lhand -15.2964 25.8195
lfingers 7.12502
lthumb 10.8789 55.5177
rfemur -2.49316 -14.9982 23.5393
rtibia 13.2983
rfoot -24.4788 -24.6578
rtoes 8.99035
lfemur -28.3044 -15.1521 -2.83289
ltibia 29.0629
lfoot -13.0974 -16.7869
ltoes -12.5898
951
root 2.63658 18.055 1.13961 4.28898 44.0916 -12.7867
lowerback 5.94632 4.4087 -0.213276
upperback -1.07201 5.67626 -5.67909
thorax -3.88254 2.7871 -6.31409
lowerneck -23.7584 -12.6375 -12.1091
upperneck 9.94949 -15.2719 11.9221
head 8.78877 -6.55851 3.59438
rclavicle -4.37326e-014 -5.725e-014
rhumerus 54.0138 -26.0603 -39.7215
rradius 45.5373
rwrist 41.5628
rhand -56.8923 -15.0106
rfingers 7.12502
rthumb -29.1887 -42.7417
lclavicle -4.37326e-014 -5.725e-014
lhumerus -31.5169 -0.22588 63.0983
lradius 55.3042
lwrist -4.00324
lhand -15.4087 26.844
lfingers 7.12502
lthumb 10.7706 56.5479
rfemur -2.86199 -14.9182 23.1099
rtibia 13.3545
rfoot -24.24 -24.6275
rtoes 8.86773
lfemur -28.4472 -14.9889 -3.27513
ltibia 28.917
lfoot -13.484 -16.5634
ltoes -14.4696
952
root 2.6399 18.0572 1.13821 4.61328 43.8342 -12.5145
lowerback 5.78395 4.42725 -0.376324
upperback -1.07589 5.69232 -5.79251
thorax -3.79804 2.8006 -6.32808
lowerneck -24.079 -12.5426 -11.9006
upperneck 10.292 -15.1497 11.6316
head 8.89811 -6.503 3.47423
rclavicle 5.725e-014 4.13472e-014
rhumerus 53.2365 -25.0997 -36.6466
rradius 45.4963
rwrist 42.3614
rhand -56.8529 -11.0924
rfingers 7.12502
rthumb -29.151 -38.8301
lclavicle 5.725e-014 4.13472e-014
lhumerus -31.6303 0.223103 62.9801
lradius 55.2674
lwrist -4.06067
lhand -15.1916 26.4865
lfingers 7.12502
lthumb 10.98 56.1793
rfemur -3.0646 -14.8324 22.8956
rtibia 13.4275
rfoot -24.0879 -24.5979
rtoes 8.33656
lfemur -28.4254 -14.8136 -3.49929
ltibia 28.7989
lfoot -13.6439 -16.4541
ltoes -15.0828
953
root 2.64245 18.0588 1.14519 4.21291 43.5944 -12.855
lowerback 5.86498 4.43564 -0.163445
upperback -1.03874 5.71826 -5.75974
thorax -3.78467 2.80945 -6.42001
lowerneck -24.2244 -12.4415 -11.7454
upperneck 10.5719 -15.0466 11.4834
head 8.97988 -6.45331 3.41287
rclavicle 6.52014e-014 3.18055e-014
rhumerus 52.2341 -23.9121 -33.438
rradius 45.6892
rwrist 43.2494
rhand -57.4547 -10.1361
rfingers 7.12502
rthumb -29.7256 -37.7727
lclavicle 6.52014e-014 3.18055e-014
lhumerus -31.8529 0.622424 62.8207
lradius 55.2116
lwrist -4.06159
lhand -15.1509 26.0333
lfingers 7.12502
lthumb 11.0192 55.7241
rfemur -2.95351 -14.6526 23.1182
rtibia 13.5651
rfoot -24.15 -24.5515
rtoes 8.02175
lfemur -28.0844 -14.6212 -3.29336
ltibia 28.7174
lfoot -13.632 -16.4518
ltoes -14.9279
954
root 2.64404 18.0588 1.15077 3.85595 43.3252 -13.1006
lowerback 5.95761 4.45367 -0.0334486
upperback -0.982583 5.75111 -5.75537
thorax -3.76234 2.82403 -6.49608
lowerneck -24.3996 -12.3555 -11.6985
upperneck 10.8935 -14.9705 11.5295
head 9.11233 -6.39853 3.42637
rclavicle 2.14687e-014 -9.54166e-015
rhumerus 51.2594 -22.6167 -30.3282
rradius 45.8901
rwrist 44.2761
rhand -58.2718 -9.61991
rfingers 7.12502
rthumb -30.5051 -37.1145
lclavicle 2.14687e-014 -9.54166e-015
lhumerus -32.0024 1.00613 62.6184
lradius 55.1275
lwrist -4.11286
lhand -14.9924 24.929
lfingers 7.12502
lthumb 11.1721 54.6116
rfemur -2.77868 -14.4944 23.2636
rtibia 13.6204
rfoot -24.1518 -24.5047
rtoes 8.46649
lfemur -27.7455 -14.4149 -3.17288
ltibia 28.7104
lfoot -13.6989 -16.4382
ltoes -15.0755
955
root 2.64944 18.0615 1.14463 4.16188 43.0281 -12.7805
lowerback 5.85258 4.4838 -0.18602
upperback -0.979016 5.78095 -5.90377
thorax -3.69625 2.84384 -6.55928
lowerneck -24.576 -12.3035 -11.6892
upperneck 11.1406 -14.9236 11.5933
head 9.22725 -6.35792 3.44704
rclavicle -2.62396e-014 -3.49861e-014
rhumerus 50.3989 -21.2437 -27.3457
rradius 45.913
rwrist 45.049
rhand -58.9799 -8.79549
rfingers 7.12502
rthumb -31.1802 -36.1625
lclavicle -2.62396e-014 -3.49861e-014
lhumerus -32.0431 1.48723 62.4997
lradius 54.9757
lwrist -4.32406
lhand -14.8064 23.0875
lfingers 7.12502
lthumb 11.3515 52.7602
rfemur -2.87276 -14.5523 22.9786
rtibia 13.5229
rfoot -23.6917 -24.5531
rtoes 8.30845
lfemur -27.742 -14.3092 -3.44416
ltibia 28.7878
lfoot -13.7736 -16.2271
ltoes -15.155
